{"asset":{"version":"2.0","generator":"VECTARY"},"scene":0,"extensionsUsed":["KHR_texture_transform"],"nodes":[{"translation":[0.007165151596069336,-0.00868694938677703,-0.0013495492935180677],"scale":[0.001,0.001,0.001],"rotation":[-0.7071067811865475,0,0,0.7071067811865476],"name":"Billy_Cotton_Pick_Up_5_Stick_mat(1)","mesh":0},{"translation":[0,0,0],"scale":[0.49304801550508337,0.49304801550508337,0.49304801550508337],"rotation":[-0.7071067811865475,0,0,0.7071067811865476],"name":"Heart","mesh":1},{"translation":[0.08322131154655703,-1.7763568394002505e-18,0.012483432799994915],"scale":[0.004798031075117783,0.005418417085332859,0.001],"rotation":[-0.7071067811865475,0,0,0.7071067811865476],"name":"56b 3","mesh":2},{"translation":[0.08322131154655703,0.005,0.012483432799994915],"scale":[0.004798031075117783,0.005418417085332859,0.001],"rotation":[-0.7071067811865475,0,0,0.7071067811865476],"name":"56b 3","mesh":3},{"translation":[0.08322131154655703,-0.005,0.012483432799994915],"scale":[0.004798031075117783,0.005418417085332859,0.001],"rotation":[-0.7071067811865475,0,0,0.7071067811865476],"name":"56b 3","mesh":4}],"materials":[{"pbrMetallicRoughness":{"baseColorFactor":[0.8117647058823529,0.8117647058823529,0.8117647058823529,1],"metallicFactor":1,"roughnessFactor":0},"name":"Mylar Silver","emissiveFactor":[0,0,0],"alphaMode":"OPAQUE","doubleSided":false},{"pbrMetallicRoughness":{"baseColorFactor":[0.458823529411765,0.0823529411764706,0.117647058823529,1],"metallicFactor":0,"roughnessFactor":0},"name":"Purple red glossy","emissiveFactor":[0,0,0],"alphaMode":"OPAQUE","doubleSided":false},{"pbrMetallicRoughness":{"baseColorFactor":[1,1,1,1],"metallicFactor":0,"roughnessFactor":0.2},"name":"56b material","emissiveFactor":[0,0,0],"alphaMode":"OPAQUE","doubleSided":false}],"meshes":[{"primitives":[{"mode":4,"attributes":{"POSITION":1,"NORMAL":2},"material":0,"indices":0}]},{"primitives":[{"mode":4,"attributes":{"POSITION":4,"NORMAL":5,"TEXCOORD_0":6},"material":1,"indices":3}]},{"primitives":[{"mode":4,"attributes":{"POSITION":8,"NORMAL":9,"TEXCOORD_0":10},"material":2,"indices":7}]},{"primitives":[{"mode":4,"attributes":{"POSITION":8,"NORMAL":9,"TEXCOORD_0":10},"material":2,"indices":7}]},{"primitives":[{"mode":4,"attributes":{"POSITION":8,"NORMAL":9,"TEXCOORD_0":10},"material":2,"indices":7}]}],"accessors":[{"bufferView":0,"byteOffset":0,"componentType":5125,"count":50628,"type":"SCALAR"},{"bufferView":1,"byteOffset":0,"componentType":5126,"count":50628,"max":[58.59934997558594,29.406150817871094,90.99970245361328],"min":[-58.59934997558594,-29.406150817871094,0],"type":"VEC3"},{"bufferView":2,"byteOffset":0,"componentType":5126,"count":50628,"type":"VEC3"},{"bufferView":3,"byteOffset":0,"componentType":5125,"count":9162,"type":"SCALAR"},{"bufferView":4,"byteOffset":0,"componentType":5126,"count":9162,"max":[0.07395099848508835,0.1016950011253357,0.06468600034713745],"min":[-0.07395099848508835,-0.10112500190734863,-0.06692200154066086],"type":"VEC3"},{"bufferView":5,"byteOffset":0,"componentType":5126,"count":9162,"type":"VEC3"},{"bufferView":6,"byteOffset":0,"componentType":5126,"count":9162,"type":"VEC2"},{"bufferView":7,"byteOffset":0,"componentType":5125,"count":6168,"type":"SCALAR"},{"bufferView":8,"byteOffset":0,"componentType":5126,"count":6168,"max":[9.911890029907227,1.8448200225830078,1],"min":[-10.08810043334961,-1.8761199712753296,0],"type":"VEC3"},{"bufferView":9,"byteOffset":0,"componentType":5126,"count":6168,"type":"VEC3"},{"bufferView":10,"byteOffset":0,"componentType":5126,"count":6168,"type":"VEC2"}],"bufferViews":[{"buffer":0,"byteOffset":0,"byteLength":202512,"target":34963},{"buffer":0,"byteOffset":202512,"byteLength":607536,"target":34962},{"buffer":0,"byteOffset":810048,"byteLength":607536,"target":34962},{"buffer":0,"byteOffset":1417584,"byteLength":36648,"target":34963},{"buffer":0,"byteOffset":1454232,"byteLength":109944,"target":34962},{"buffer":0,"byteOffset":1564176,"byteLength":109944,"target":34962},{"buffer":0,"byteOffset":1674120,"byteLength":73296,"target":34962},{"buffer":0,"byteOffset":1747416,"byteLength":24672,"target":34963},{"buffer":0,"byteOffset":1772088,"byteLength":74016,"target":34962},{"buffer":0,"byteOffset":1846104,"byteLength":74016,"target":34962},{"buffer":0,"byteOffset":1920120,"byteLength":49344,"target":34962}],"scenes":[{"nodes":[0,1,2,3,4],"name":"Project Name"}],"buffers":[{"byteLength":1969464,"uri":"ProjectName.bin"}]}