{"asset":{"version":"2.0","generator":"VECTARY"},"scene":0,"extensionsUsed":["KHR_texture_transform"],"nodes":[{"translation":[-0.00042756292100025695,0.009511165638717014,8.881784197001253e-19],"scale":[0.004852868078700713,0.004852868078700713,0.001],"rotation":[0,0,0,1],"name":"56b","mesh":0},{"translation":[-0.00042756292100025695,0.009511165638717017,0.004999999999999998],"scale":[0.004852868078700713,0.004852868078700713,0.001],"rotation":[0,0,0,1],"name":"56b","mesh":1},{"translation":[-0.00042756292100025695,0.009511165638717015,0.01],"scale":[0.004852868078700713,0.004852868078700713,0.001],"rotation":[0,0,0,1],"name":"56b","mesh":2},{"translation":[-0.00042756292100025695,0.009511165638717015,0.015],"scale":[0.004852868078700713,0.004852868078700713,0.001],"rotation":[0,0,0,1],"name":"56b","mesh":3}],"materials":[{"pbrMetallicRoughness":{"baseColorFactor":[1,1,1,1],"metallicFactor":0,"roughnessFactor":0},"name":"Glass Thin","emissiveFactor":[0,0,0],"alphaMode":"OPAQUE","doubleSided":true},{"pbrMetallicRoughness":{"baseColorFactor":[1,1,1,1],"metallicFactor":0,"roughnessFactor":0},"name":"Glass Extra Thin","emissiveFactor":[0,0,0],"alphaMode":"OPAQUE","doubleSided":true},{"pbrMetallicRoughness":{"baseColorFactor":[1,1,1,1],"baseColorTexture":{"index":0,"extensions":{"KHR_texture_transform":{"offset":[0,0],"scale":[1,1]}}},"metallicFactor":0,"roughnessFactor":0},"name":"Glass Reflective","emissiveFactor":[0,0,0],"alphaMode":"BLEND","doubleSided":true},{"pbrMetallicRoughness":{"baseColorFactor":[1,1,1,1],"metallicFactor":0,"roughnessFactor":1},"name":"Glass Sanding 1","emissiveFactor":[0,0,0],"alphaMode":"OPAQUE","doubleSided":false}],"meshes":[{"primitives":[{"mode":4,"attributes":{"POSITION":1,"NORMAL":2,"TEXCOORD_0":3},"material":0,"indices":0}]},{"primitives":[{"mode":4,"attributes":{"POSITION":1,"NORMAL":2,"TEXCOORD_0":3},"material":1,"indices":0}]},{"primitives":[{"mode":4,"attributes":{"POSITION":1,"NORMAL":2,"TEXCOORD_0":3},"material":2,"indices":0}]},{"primitives":[{"mode":4,"attributes":{"POSITION":1,"NORMAL":2,"TEXCOORD_0":3},"material":3,"indices":0}]}],"accessors":[{"bufferView":0,"byteOffset":0,"componentType":5125,"count":6168,"type":"SCALAR"},{"bufferView":1,"byteOffset":0,"componentType":5126,"count":6168,"max":[9.999995231628418,1.8604700565338135,1],"min":[-9.999995231628418,-1.8604700565338135,0],"type":"VEC3"},{"bufferView":2,"byteOffset":0,"componentType":5126,"count":6168,"type":"VEC3"},{"bufferView":3,"byteOffset":0,"componentType":5126,"count":6168,"type":"VEC2"}],"bufferViews":[{"buffer":0,"byteOffset":0,"byteLength":24672,"target":34963},{"buffer":0,"byteOffset":24672,"byteLength":74016,"target":34962},{"buffer":0,"byteOffset":98688,"byteLength":74016,"target":34962},{"buffer":0,"byteOffset":172704,"byteLength":49344,"target":34962}],"textures":[{"sampler":0,"source":0}],"images":[{"uri":"6613ed52-14b5-4565-9fc1-9b1293186fc0.png","mimeType":"image/png"}],"samplers":[{"wrapS":10497,"wrapT":10497}],"scenes":[{"nodes":[0,1,2,3],"name":"Project Name"}],"buffers":[{"byteLength":222048,"uri":"ProjectName.bin"}]}