{"asset":{"version":"2.0","generator":"VECTARY"},"scene":0,"extensionsUsed":["KHR_texture_transform"],"nodes":[{"translation":[-0.019716723490926964,-0.004860580495920731,-0.003269149809694803],"scale":[0.000449408428596254,0.000449408428596254,0.000449408428596254],"rotation":[-0.7071067811865475,0,0,0.7071067811865476],"name":"Billy_Cotton_Pick_Up_5_Stick_mat(1)","mesh":0},{"translation":[-0.022936803010370415,-0.0009565922227140742,-0.0026626509823816625],"scale":[0.22157993387064098,0.22157993387064098,0.22157993387064098],"rotation":[-0.7071067811865475,0,0,0.7071067811865476],"name":"Heart","mesh":1},{"translation":[0.014463555837487064,-0.0009565922227140752,0.0029475089357509877],"scale":[0.0021562756058246778,0.0024350823077985352,0.000449408428596254],"rotation":[-0.7071067811865475,0,0,0.7071067811865476],"name":"56b 3","mesh":2},{"translation":[0.014463555837487064,0.0012904499202671946,0.002947508935750988],"scale":[0.0021562756058246778,0.0024350823077985352,0.000449408428596254],"rotation":[-0.7071067811865475,0,0,0.7071067811865476],"name":"56b 3","mesh":3},{"translation":[0.014463555837487064,-0.0032036343656953446,0.0029475089357509873],"scale":[0.0021562756058246778,0.0024350823077985352,0.000449408428596254],"rotation":[-0.7071067811865475,0,0,0.7071067811865476],"name":"56b 3","mesh":4}],"materials":[{"pbrMetallicRoughness":{"baseColorFactor":[0.792156862745098,0.792156862745098,0.792156862745098,1],"metallicFactor":1,"roughnessFactor":0.05},"name":"Platinum","emissiveFactor":[0,0,0],"alphaMode":"OPAQUE","doubleSided":false},{"pbrMetallicRoughness":{"baseColorFactor":[0.458823529411765,0.0823529411764706,0.117647058823529,1],"metallicFactor":0,"roughnessFactor":0},"name":"Purple red glossy","emissiveFactor":[0,0,0],"alphaMode":"OPAQUE","doubleSided":false},{"pbrMetallicRoughness":{"baseColorFactor":[1,1,1,1],"baseColorTexture":{"index":0,"extensions":{"KHR_texture_transform":{"offset":[0,0],"scale":[1,1]}}},"metallicFactor":0,"roughnessFactor":0},"name":"Glass Reflective","emissiveFactor":[0,0,0],"alphaMode":"BLEND","doubleSided":true},{"pbrMetallicRoughness":{"baseColorFactor":[1,1,1,1],"baseColorTexture":{"index":1,"extensions":{"KHR_texture_transform":{"offset":[0,0],"scale":[1,1]}}},"metallicFactor":0,"roughnessFactor":0},"name":"Glass Reflective 1","emissiveFactor":[0,0,0],"alphaMode":"BLEND","doubleSided":true},{"pbrMetallicRoughness":{"baseColorFactor":[1,1,1,1],"baseColorTexture":{"index":1,"extensions":{"KHR_texture_transform":{"offset":[0,0],"scale":[1,1]}}},"metallicFactor":0,"roughnessFactor":0},"name":"Glass Reflective 2","emissiveFactor":[0,0,0],"alphaMode":"BLEND","doubleSided":true}],"meshes":[{"primitives":[{"mode":4,"attributes":{"POSITION":1,"NORMAL":2},"material":0,"indices":0}]},{"primitives":[{"mode":4,"attributes":{"POSITION":4,"NORMAL":5,"TEXCOORD_0":6},"material":1,"indices":3}]},{"primitives":[{"mode":4,"attributes":{"POSITION":8,"NORMAL":9,"TEXCOORD_0":10},"material":2,"indices":7}]},{"primitives":[{"mode":4,"attributes":{"POSITION":8,"NORMAL":9,"TEXCOORD_0":10},"material":3,"indices":7}]},{"primitives":[{"mode":4,"attributes":{"POSITION":8,"NORMAL":9,"TEXCOORD_0":10},"material":4,"indices":7}]}],"accessors":[{"bufferView":0,"byteOffset":0,"componentType":5125,"count":50628,"type":"SCALAR"},{"bufferView":1,"byteOffset":0,"componentType":5126,"count":50628,"max":[58.59934997558594,29.406150817871094,90.99970245361328],"min":[-58.59934997558594,-29.406150817871094,0],"type":"VEC3"},{"bufferView":2,"byteOffset":0,"componentType":5126,"count":50628,"type":"VEC3"},{"bufferView":3,"byteOffset":0,"componentType":5125,"count":9162,"type":"SCALAR"},{"bufferView":4,"byteOffset":0,"componentType":5126,"count":9162,"max":[0.07395099848508835,0.1016950011253357,0.06468600034713745],"min":[-0.07395099848508835,-0.10112500190734863,-0.06692200154066086],"type":"VEC3"},{"bufferView":5,"byteOffset":0,"componentType":5126,"count":9162,"type":"VEC3"},{"bufferView":6,"byteOffset":0,"componentType":5126,"count":9162,"type":"VEC2"},{"bufferView":7,"byteOffset":0,"componentType":5125,"count":6168,"type":"SCALAR"},{"bufferView":8,"byteOffset":0,"componentType":5126,"count":6168,"max":[9.911890029907227,1.8448200225830078,1],"min":[-10.08810043334961,-1.8761199712753296,0],"type":"VEC3"},{"bufferView":9,"byteOffset":0,"componentType":5126,"count":6168,"type":"VEC3"},{"bufferView":10,"byteOffset":0,"componentType":5126,"count":6168,"type":"VEC2"}],"bufferViews":[{"buffer":0,"byteOffset":0,"byteLength":202512,"target":34963},{"buffer":0,"byteOffset":202512,"byteLength":607536,"target":34962},{"buffer":0,"byteOffset":810048,"byteLength":607536,"target":34962},{"buffer":0,"byteOffset":1417584,"byteLength":36648,"target":34963},{"buffer":0,"byteOffset":1454232,"byteLength":109944,"target":34962},{"buffer":0,"byteOffset":1564176,"byteLength":109944,"target":34962},{"buffer":0,"byteOffset":1674120,"byteLength":73296,"target":34962},{"buffer":0,"byteOffset":1747416,"byteLength":24672,"target":34963},{"buffer":0,"byteOffset":1772088,"byteLength":74016,"target":34962},{"buffer":0,"byteOffset":1846104,"byteLength":74016,"target":34962},{"buffer":0,"byteOffset":1920120,"byteLength":49344,"target":34962}],"textures":[{"sampler":0,"source":0},{"sampler":0,"source":1}],"images":[{"uri":"a1dd2355-8d25-4ef2-b52b-a8693b629deb.png","mimeType":"image/png"},{"uri":"a1dd2355-8d25-4ef2-b52b-a8693b629deb.png","mimeType":"image/png"}],"samplers":[{"wrapS":10497,"wrapT":10497}],"scenes":[{"nodes":[0,1,2,3,4],"name":"Project Name"}],"buffers":[{"byteLength":1969464,"uri":"ProjectName.bin"}]}